<svg width="120" height="120" viewBox="0 0 120 120" fill="none" xmlns="http://www.w3.org/2000/svg">
<path fillRule="evenodd" clipRule="evenodd" d="M12 0H108C114.627 0 120 5.37259 120 12V108C120 114.627 114.627 120 108 120H12C5.37259 120 0 114.627 0 108V12C0 5.37259 5.37259 0 12 0Z" fill="white"/>
<g clip-path="url(#clip0_753692_63)">
<path d="M92.9 13H27.1C19.3128 13 13 19.3128 13 27.1V92.9C13 100.687 19.3128 107 27.1 107H92.9C100.687 107 107 100.687 107 92.9V27.1C107 19.3128 100.687 13 92.9 13Z" fill="white"/>
<path d="M60 79.4609V99.1055L84.0508 65.1406L60 79.4609Z" fill="#3C3C3B"/>
<path d="M60 20.5273L84.0508 60.5508L60 74.8711L35.7656 60.5508" fill="#343434"/>
<path d="M60 20.5273V49.5352L35.7656 60.5508M35.7656 65.1406L60 79.4609V99.1055" fill="#8C8C8C"/>
<path d="M60 49.5352V74.8711L84.0508 60.5508" fill="#141414"/>
<path d="M35.7656 60.5508L60 49.5352V74.8711" fill="#393939"/>
</g>
<defs>
<clipPath id="clip0_753692_63">
<rect width="94" height="94" fill="white" transform="translate(13 13)"/>
</clipPath>
</defs>
</svg>
