<svg width="225" height="186" viewBox="0 0 225 186" fill="none" xmlns="http://www.w3.org/2000/svg">
<path d="M169 25.6553C169 23.6312 167.209 21.9903 165 21.9903C162.791 21.9903 161 23.6312 161 25.6553C161 27.6794 162.791 29.3203 165 29.3203C167.209 29.3203 169 27.6794 169 25.6553Z" fill="#B3B3D5"/>
<path d="M54 163.094C54 161.07 52.2091 159.429 50 159.429C47.7909 159.429 46 161.07 46 163.094C46 165.118 47.7909 166.759 50 166.759C52.2091 166.759 54 165.118 54 163.094Z" fill="#B3B3D5"/>
<path d="M200 43.9808C200 38.4144 195.075 33.9019 189 33.9019C182.925 33.9019 178 38.4144 178 43.9808C178 49.5471 182.925 54.0596 189 54.0596C195.075 54.0596 200 49.5471 200 43.9808Z" fill="#D9D9EA"/>
<path d="M37 146.601C37 141.034 32.0751 136.522 26 136.522C19.9249 136.522 15 141.034 15 146.601C15 152.167 19.9249 156.68 26 156.68C32.0751 156.68 37 152.167 37 146.601Z" fill="#D9D9EA"/>
<path d="M87.2449 89.7934C87.2449 82.7089 93.0012 76.9658 100.102 76.9658H190.139C197.24 76.9658 202.996 82.7089 202.996 89.7934V143.481C202.996 150.565 197.24 156.308 190.139 156.308H100.102C93.0012 156.308 87.2449 150.565 87.2449 143.481V89.7934Z" fill="#6868AC"/>
<path d="M18.8081 59.3552C16.5358 52.6433 20.1448 45.3565 26.869 43.0797L112.157 14.2015C118.881 11.9248 126.174 15.5202 128.446 22.2322L145.659 73.0783C147.932 79.7903 144.323 87.0771 137.598 89.3538L52.3105 118.232C45.5863 120.509 38.2934 116.913 36.0211 110.201L18.8081 59.3552Z" fill="#B3B3D5"/>
<path d="M87.2449 96.2963C87.2449 89.2118 93.0012 83.4688 100.102 83.4688H190.139C197.24 83.4688 202.996 89.2119 202.996 96.2963V149.984C202.996 157.068 197.24 162.811 190.139 162.811H100.102C93.0012 162.811 87.2449 157.068 87.2449 149.984V96.2963Z" fill="#D9D9EA"/>
<path d="M158.777 121.19C158.777 113.288 165.197 106.882 173.117 106.882H206.898V135.497H173.117C165.197 135.497 158.777 129.091 158.777 121.19Z" fill="#6868AC"/>
<path d="M182.187 121.189C182.187 126.217 178.111 130.294 173.083 130.294C168.055 130.294 163.979 126.217 163.979 121.189C163.979 116.16 168.055 112.084 173.083 112.084C178.111 112.084 182.187 116.16 182.187 121.189Z" fill="white"/>
<path d="M46.7656 89.2113C44.8077 83.4277 47.9174 77.1489 53.7115 75.187L57.3673 73.9492C63.1613 71.9874 69.4455 75.0855 71.4034 80.869L74.9485 91.3411L50.3107 99.6833L46.7656 89.2113Z" fill="#6868AC"/>
<path d="M59.9921 59.3284C61.6046 64.0913 59.0509 69.2597 54.2884 70.8722C49.526 72.4848 44.3581 69.9309 42.7457 65.168C41.1333 60.4051 43.6869 55.2367 48.4494 53.6242C53.2119 52.0116 58.3797 54.5655 59.9921 59.3284Z" fill="white"/>
</svg>
